<svg id="Layer_1" data-name="Layer 1" xmlns="http://www.w3.org/2000/svg" viewBox="0 0 647.63 632.17"><defs><style>.cls-1{fill:#e0e0e0;}.cls-2{fill:#e6e6e6;}.cls-3{fill:#fff;}.cls-4{fill:#a6a6a6;}.cls-5{fill:#e4e4e4;}.cls-6{fill:#231f20;opacity:0.16;isolation:isolate;}</style></defs><title>bookmark-empty</title><path class="cls-1" d="M63.05,544.82l-35.57-9.51a118.79,118.79,0,0,1-1.76-57.13c15.51,30.67,57.18,36.46,81.87,60.37a71.47,71.47,0,0,1,21,58.28l8.52,24.68A119.72,119.72,0,0,1,47.76,576a115.46,115.46,0,0,1-14.71-25C47.93,548.79,63.05,544.82,63.05,544.82Z"/><path class="cls-2" d="M504.88,628.44H156.31a35.26,35.26,0,0,1-35.23-35.23V131.66a35.26,35.26,0,0,1,35.23-35.23H504.88a35.27,35.27,0,0,1,35.24,35.23V593.21A35.27,35.27,0,0,1,504.88,628.44Z"/><path class="cls-3" d="M371.84,599.87h-191a32.12,32.12,0,0,1-32.09-32.08V157.08A32.13,32.13,0,0,1,180.82,125H480.38a32.12,32.12,0,0,1,32.08,32.09V459.25A140.76,140.76,0,0,1,371.84,599.87Z"/><path class="cls-4" d="M450.5,203.84H210.7a7.82,7.82,0,1,1,0-15.64H450.5a7.82,7.82,0,0,1,0,15.64Z"/><path class="cls-4" d="M450.5,234.75H210.7a7.82,7.82,0,0,1,0-15.64H450.5a7.82,7.82,0,0,1,0,15.64Z"/><path class="cls-4" d="M314.65,265.65H210.7a7.82,7.82,0,1,1,0-15.64h104a7.82,7.82,0,0,1,0,15.64Z"/><path class="cls-5" d="M450.5,330.37H210.7a7.82,7.82,0,1,1,0-15.64H450.5a7.82,7.82,0,0,1,0,15.64h0Z"/><path class="cls-5" d="M450.5,361.28H210.7a7.82,7.82,0,0,1,0-15.64H450.5a7.82,7.82,0,0,1,0,15.64Z"/><path class="cls-5" d="M314.65,392.18H210.7a7.82,7.82,0,1,1,0-15.64h104a7.82,7.82,0,0,1,0,15.64Z"/><path class="cls-5" d="M450.5,456.9H210.7a7.82,7.82,0,1,1,0-15.64H450.5a7.82,7.82,0,0,1,0,15.64Z"/><path class="cls-5" d="M450.5,487.81H210.7a7.83,7.83,0,0,1,0-15.65H450.5a7.83,7.83,0,0,1,0,15.65Z"/><path class="cls-5" d="M314.65,518.71H210.7a7.82,7.82,0,1,1,0-15.64h104a7.82,7.82,0,0,1,0,15.64Z"/><circle class="cls-4" cx="522.91" cy="105.4" r="101.67"/><path class="cls-6" d="M522.91,193a101.67,101.67,0,0,1-101.4-94.52c-.16,2.37-.28,4.75-.28,7.16a101.68,101.68,0,0,0,203.35,0c0-2.41-.12-4.79-.28-7.16A101.66,101.66,0,0,1,522.91,193Z"/><path class="cls-3" d="M522.91,155.09a12.76,12.76,0,0,1-12.74-12.74V68.68a12.74,12.74,0,1,1,25.47,0v73.7A12.75,12.75,0,0,1,522.91,155.09Z"/><path class="cls-3" d="M473.34,105.52a12.75,12.75,0,0,1,12.73-12.74h73.67a12.74,12.74,0,0,1,0,25.47H486.07A12.74,12.74,0,0,1,473.34,105.52Z"/></svg>