<?xml version="1.0" encoding="utf-8"?>
<!-- Generator: Adobe Illustrator 22.1.0, SVG Export Plug-In . SVG Version: 6.00 Build 0)  -->
<svg version="1.1" id="Layer_1" xmlns="http://www.w3.org/2000/svg" xmlns:xlink="http://www.w3.org/1999/xlink" x="0px" y="0px"
	 viewBox="0 0 647.6 632.2" style="enable-background:new 0 0 647.6 632.2;" xml:space="preserve">
<style type="text/css">
	.st0{fill:#BCBCBC;}
	.st1{fill:#E6E6E6;}
	.st2{fill:#FFFFFF;}
	.st3{fill:#A6A6A6;}
	.st4{fill:#E4E4E4;}
	.st5{opacity:0.16;fill:#231F20;enable-background:new    ;}
</style>
<title>bookmark-empty</title>
<path class="st0" d="M63,544.8l-35.6-9.5c-5.2-18.6-5.8-38.2-1.8-57.1c15.5,30.7,57.2,36.5,81.9,60.4c15.5,15.2,23.2,36.7,21,58.3
	l8.5,24.7c-35-1.4-67.7-18-89.4-45.5c-5.9-7.7-10.9-16.1-14.7-25C47.9,548.8,63,544.8,63,544.8z"/>
<path class="st1" d="M504.9,628.4H156.3c-19.5,0-35.2-15.8-35.2-35.2V131.7c0-19.5,15.8-35.2,35.2-35.2h348.6
	c19.5,0,35.2,15.8,35.2,35.2v461.6C540.1,612.7,524.3,628.4,504.9,628.4z"/>
<path class="st2" d="M371.8,599.9h-191c-17.7,0-32.1-14.4-32.1-32.1V157.1c0-17.7,14.4-32,32.1-32.1h299.6
	c17.7,0,32.1,14.4,32.1,32.1v302.2C512.4,536.9,449.5,599.8,371.8,599.9z"/>
<path class="st3" d="M450.5,203.8H210.7c-4.3,0-7.8-3.5-7.8-7.8c0-4.3,3.5-7.8,7.8-7.8c0,0,0,0,0,0h239.8c4.3,0,7.8,3.5,7.8,7.8
	C458.3,200.3,454.8,203.8,450.5,203.8z"/>
<path class="st3" d="M450.5,234.8H210.7c-4.3,0-7.8-3.5-7.8-7.8c0-4.3,3.5-7.8,7.8-7.8h239.8c4.3,0,7.8,3.5,7.8,7.8
	C458.3,231.2,454.8,234.7,450.5,234.8z"/>
<path class="st3" d="M314.6,265.6H210.7c-4.3,0-7.8-3.5-7.8-7.8c0-4.3,3.5-7.8,7.8-7.8c0,0,0,0,0,0h104c4.3,0,7.8,3.5,7.8,7.8
	C322.5,262.1,319,265.6,314.6,265.6L314.6,265.6z"/>
<path class="st4" d="M450.5,330.4H210.7c-4.3,0-7.8-3.5-7.8-7.8s3.5-7.8,7.8-7.8h239.8c4.3,0,7.8,3.5,7.8,7.8
	S454.8,330.4,450.5,330.4L450.5,330.4z"/>
<path class="st4" d="M450.5,361.3H210.7c-4.3,0-7.8-3.5-7.8-7.8s3.5-7.8,7.8-7.8h239.8c4.3,0,7.8,3.5,7.8,7.8
	S454.8,361.3,450.5,361.3z"/>
<path class="st4" d="M314.6,392.2H210.7c-4.3,0-7.8-3.5-7.8-7.8s3.5-7.8,7.8-7.8h104c4.3,0,7.8,3.5,7.8,7.8S319,392.2,314.6,392.2
	L314.6,392.2z"/>
<path class="st4" d="M450.5,456.9H210.7c-4.3,0-7.8-3.5-7.8-7.8s3.5-7.8,7.8-7.8h239.8c4.3,0,7.8,3.5,7.8,7.8
	S454.8,456.9,450.5,456.9z"/>
<path class="st4" d="M450.5,487.8H210.7c-4.3-0.2-7.7-3.8-7.5-8.1c0.1-4.1,3.4-7.4,7.5-7.5h239.8c4.3,0.2,7.7,3.8,7.5,8.1
	C457.9,484.4,454.6,487.7,450.5,487.8z"/>
<path class="st4" d="M314.6,518.7H210.7c-4.3,0-7.8-3.5-7.8-7.8c0-4.3,3.5-7.8,7.8-7.8h104c4.3,0,7.8,3.5,7.8,7.8
	C322.5,515.2,319,518.7,314.6,518.7L314.6,518.7z"/>
<circle class="st3" cx="522.9" cy="105.4" r="101.7"/>
<path class="st5" d="M522.9,193c-53.4,0-97.6-41.3-101.4-94.5c-0.2,2.4-0.3,4.8-0.3,7.2c0.6,56.2,46.5,101.2,102.7,100.7
	c55.4-0.5,100.1-45.3,100.7-100.7c0-2.4-0.1-4.8-0.3-7.2C620.6,151.7,576.3,193,522.9,193z"/>
<path class="st2" d="M522.9,155.1c-7,0-12.7-5.7-12.7-12.7V68.7c-0.2-7,5.3-12.9,12.4-13.1c7-0.2,12.9,5.3,13.1,12.4
	c0,0.2,0,0.5,0,0.7v73.7C535.6,149.4,529.9,155.1,522.9,155.1z"/>
<path class="st2" d="M473.3,105.5c0-7,5.7-12.7,12.7-12.7h73.7c7,0.2,12.6,6.1,12.4,13.1c-0.2,6.8-5.6,12.2-12.4,12.4h-73.7
	C479,118.2,473.3,112.5,473.3,105.5z"/>
</svg>
